<svg width="30" height="30" viewBox="0 0 30 30" fill="none" xmlns="http://www.w3.org/2000/svg">
<path d="M18.5589 15.034L29.282 4.33757C30.2395 3.38126 30.2395 1.8243 29.2813 0.867991C28.3521 -0.0585566 26.7309 -0.0585566 25.8017 0.867991L15.0786 11.5644L4.19848 0.716205C3.24078 -0.238735 1.68028 -0.238735 0.719839 0.716205C-0.239946 1.67251 -0.239946 3.22948 0.719839 4.18579L11.5994 15.0346L0.795652 25.812C-0.164133 26.7683 -0.164133 28.3252 0.795652 29.2816C1.25969 29.7454 1.87763 30 2.53566 30C3.19159 30 3.80956 29.7454 4.27566 29.282L15.0794 18.5052L25.8013 29.1969C26.2667 29.6589 26.8846 29.914 27.5406 29.914C28.1966 29.914 28.8145 29.6594 29.2809 29.196C30.2383 28.2397 30.2383 26.6827 29.2802 25.7264L18.5589 15.034Z" fill="white"/>
</svg>
