<svg width="39" height="26" viewBox="0 0 39 26" fill="none" xmlns="http://www.w3.org/2000/svg">
<rect y="0.594421" width="38.1703" height="24.8107" rx="1.89916" fill="#EDEDED"/>
<path d="M33.3989 13.6448V12.3402H31.291V10.137H29.7812V12.3402H27.6733V13.6448H29.7812V15.8625H31.291V13.6448H33.3989Z" fill="#000055"/>
<path d="M11.4865 6.31995C12.2362 6.31995 12.9268 6.40454 13.5581 6.57372C14.1894 6.73083 14.7353 6.97252 15.1956 7.29881C15.656 7.61301 16.0111 7.99972 16.261 8.45893C16.5241 8.91815 16.6556 9.43779 16.6556 10.0179C16.6556 10.7067 16.4978 11.3653 16.1821 11.9937C15.8796 12.6221 15.4324 13.2324 14.8405 13.8245C14.2618 14.4167 13.5515 14.9967 12.7098 15.5647C11.868 16.1206 10.921 16.6765 9.86874 17.2324H16.7148V19.6796H5.72559V17.2324C6.68574 16.5919 7.62617 15.9696 8.54687 15.3653C9.46757 14.749 10.2831 14.1508 10.9933 13.5708C11.7167 12.9786 12.2954 12.4046 12.7295 11.8487C13.1635 11.2928 13.3805 10.7429 13.3805 10.1991C13.3805 9.63115 13.1833 9.21423 12.7887 8.94836C12.3941 8.67042 11.9272 8.53144 11.3879 8.53144C11.0985 8.53144 10.8092 8.57978 10.5198 8.67646C10.2436 8.76105 9.99369 8.90607 9.77009 9.11151C9.55964 9.31695 9.38866 9.60094 9.25713 9.96348C9.1256 10.3139 9.07299 10.749 9.09929 11.2686H5.88342C5.85711 10.4952 5.97549 9.80033 6.23855 9.18401C6.51476 8.5677 6.90277 8.04805 7.40257 7.62509C7.90238 7.20213 8.50084 6.88188 9.19794 6.66436C9.89504 6.43475 10.6579 6.31995 11.4865 6.31995Z" fill="#000055"/>
<path d="M21.5751 19.6796V10.8517H18.3198V8.65833C18.9117 8.64625 19.4246 8.59791 19.8587 8.51331C20.3059 8.41664 20.6873 8.28371 21.003 8.11452C21.3187 7.94534 21.5817 7.73385 21.7922 7.48008C22.0026 7.21421 22.1867 6.90001 22.3446 6.53747H24.8107V19.6796H21.5751Z" fill="#000055"/>
</svg>
