<svg width="437" height="143" viewBox="0 0 437 143" fill="none" xmlns="http://www.w3.org/2000/svg">
<path d="M437 0H0V77.8042H437V0Z" fill="#FF267E"/>
<path d="M141.735 37.3784H115.727V29.8283H147.189V19.4058H100.646V58.2235H115.727V47.8009H141.735V37.3784Z" fill="#000055"/>
<path d="M224.397 45.2584L210.597 19.4058H193.284L215.702 58.2235H232.878L255.276 19.4058H238.216L224.397 45.2584Z" fill="#000055"/>
<path d="M303.621 38.5041C307.07 37.1668 309.38 33.8576 309.444 30.1583C309.444 23.7922 304.067 19.4058 293.49 19.4058H259.35V58.2235H294.285C305.64 58.2235 310.686 53.74 310.686 47.2381C310.608 43.6086 308.415 40.3285 303.621 38.5041ZM274.042 28.7996H290.87C291.062 28.7608 291.258 28.7414 291.454 28.7414C293.084 28.7414 294.423 30.0826 294.423 31.711C294.423 33.3394 293.084 34.6805 291.454 34.6805C291.258 34.6805 291.062 34.6611 290.87 34.6223H274.042V28.7996ZM292.092 48.9849H274.042V43.1622H292.092C292.284 43.1234 292.48 43.104 292.676 43.104C294.307 43.104 295.646 44.4451 295.646 46.0735C295.646 47.7019 294.307 49.0431 292.676 49.0431C292.48 49.0431 292.284 49.0237 292.092 48.9849Z" fill="#000055"/>
<path d="M332.848 43.0263H358.817V34.6029H332.848V29.8283H361.554V19.4058H317.767V58.2235H362.233V47.8009H332.848V43.0263Z" fill="#000055"/>
<path d="M368.464 19.4058V29.8283H385.389V58.2235H400.644V29.8283H417.549V19.4058H368.464Z" fill="#000055"/>
<path d="M164.712 19.4058L142.314 58.2235H158.346L161.373 52.4979H185.324L188.352 58.2235H205.043L182.626 19.4058H164.712ZM166.653 42.4247L173.271 29.9254L179.889 42.4247H166.653Z" fill="#000055"/>
<path d="M20.0599 34.6208L33.4326 58.222H50.6094L37.2173 34.6208H20.0599Z" fill="#000055"/>
<path d="M63.9826 34.6208L50.61 58.222H67.7674L81.14 34.6208H63.9826Z" fill="#000055"/>
<path d="M50.6091 11.0776L37.217 34.6206H63.9818L50.6091 11.0776Z" fill="#000055"/>
<path d="M192.646 77.1162H0.5271V141.958H192.646V77.1162Z" fill="#000055"/>
<path d="M43.3696 114.191C43.1911 115.5 42.834 116.668 42.227 117.765C41.62 118.863 40.7988 119.783 39.8347 120.561C38.8706 121.375 37.728 121.977 36.4426 122.402C35.1214 122.862 33.6932 123.074 32.1578 123.074C30.2296 123.074 28.5157 122.756 27.0161 122.119C25.5164 121.517 24.2667 120.632 23.2312 119.429C22.16 118.261 21.4101 116.881 20.8745 115.217C20.3389 113.554 20.0533 111.714 20.0533 109.661C20.0533 107.644 20.3389 105.803 20.9102 104.175C21.4815 102.547 22.3028 101.167 23.374 100.034C24.4095 98.902 25.6949 98.0172 27.2303 97.4155C28.73 96.8139 30.4082 96.4954 32.3006 96.4954C33.836 96.4954 35.2285 96.7077 36.4783 97.097C37.728 97.5217 38.8349 98.1234 39.799 98.8666C40.7631 99.6452 41.5486 100.565 42.1556 101.627C42.7626 102.724 43.1554 103.928 43.3696 105.272H38.5135C38.2636 104.388 37.9422 103.609 37.5495 103.007C37.121 102.406 36.6568 101.946 36.1212 101.556C35.5499 101.167 34.9786 100.919 34.3359 100.742C33.6575 100.601 32.979 100.53 32.2649 100.53C31.3008 100.53 30.3725 100.707 29.5512 101.096C28.6943 101.521 27.9444 102.087 27.3374 102.866C26.7304 103.644 26.2305 104.6 25.8734 105.732C25.5164 106.865 25.3378 108.174 25.3378 109.661C25.3378 111.183 25.5164 112.563 25.8734 113.695C26.2305 114.863 26.7304 115.854 27.3374 116.633C27.9444 117.447 28.6586 118.049 29.4798 118.438C30.3011 118.827 31.158 119.04 32.0864 119.04C32.8362 119.04 33.5861 118.969 34.2645 118.756C34.9429 118.579 35.5856 118.296 36.1569 117.907C36.6925 117.553 37.1924 117.022 37.5852 116.421C37.978 115.819 38.2993 115.076 38.5135 114.191H43.3696Z" fill="#FF267E"/>
<path d="M57.5083 96.949H62.6501L72.3265 122.608H66.792L64.971 117.405H54.9017L53.0807 122.608H47.8676L57.5083 96.949ZM56.3657 113.264H63.507L59.9364 103.142L56.3657 113.264Z" fill="#FF267E"/>
<path d="M85.109 111.36C84.0735 111.147 83.0737 110.864 82.1453 110.475C81.1813 110.086 80.36 109.59 79.6816 108.988C78.9675 108.387 78.3962 107.679 78.0034 106.83C77.5749 106.016 77.3607 105.025 77.3607 103.928C77.3607 102.618 77.682 101.521 78.3247 100.565C78.9318 99.6452 79.753 98.8666 80.7528 98.2649C81.7169 97.6633 82.8238 97.2386 84.0735 96.9201C85.2875 96.6369 86.5015 96.4954 87.6799 96.4954C89.001 96.4954 90.2864 96.6723 91.5005 97.0616C92.6788 97.4509 93.75 97.9818 94.6783 98.6542C95.6067 99.362 96.3565 100.211 96.9278 101.202C97.4634 102.193 97.7848 103.29 97.8562 104.529H92.9287C92.8216 103.786 92.6074 103.149 92.2503 102.618C91.8932 102.123 91.4647 101.698 90.9649 101.379C90.465 101.096 89.8937 100.848 89.2867 100.707C88.6796 100.601 88.0726 100.53 87.4656 100.53C86.8586 100.53 86.2873 100.601 85.6803 100.707C85.0733 100.813 84.5377 100.99 84.0735 101.238C83.6093 101.521 83.2165 101.839 82.9309 102.229C82.6095 102.653 82.4667 103.149 82.4667 103.715C82.4667 104.6 82.8238 105.308 83.5022 105.839C84.1806 106.37 85.0376 106.723 86.0731 106.9L89.4652 107.502C90.5007 107.679 91.5719 107.962 92.6431 108.281C93.6786 108.599 94.6426 109.059 95.4996 109.625C96.3208 110.227 96.9993 110.97 97.5349 111.855C98.0705 112.775 98.3204 113.908 98.3204 115.217C98.3204 116.527 98.0347 117.695 97.4277 118.65C96.8207 119.641 95.9995 120.455 95.0354 121.128C94.0356 121.8 92.893 122.26 91.679 122.579C90.4293 122.933 89.1438 123.074 87.8227 123.074C86.2159 123.074 84.7876 122.862 83.5022 122.437C82.1811 122.048 81.0742 121.446 80.1101 120.668C79.146 119.924 78.3962 119.004 77.8249 117.872C77.2536 116.775 76.8965 115.536 76.7894 114.156H81.7169C81.8597 115.111 82.1096 115.89 82.5024 116.491C82.8952 117.128 83.3594 117.624 83.9307 118.013C84.4663 118.403 85.109 118.65 85.8231 118.792C86.5015 118.969 87.2514 119.04 88.0012 119.04C88.5725 119.04 89.1795 118.969 89.7865 118.863C90.3936 118.756 90.9292 118.544 91.4647 118.261C91.9646 118.013 92.3931 117.659 92.7145 117.164C93.0358 116.704 93.1787 116.137 93.1787 115.465C93.1787 114.934 93.0715 114.439 92.8216 114.049C92.5717 113.66 92.2503 113.342 91.8218 113.058C91.3933 112.811 90.8934 112.563 90.3221 112.386C89.7151 112.209 89.0724 112.067 88.394 111.961L85.109 111.36Z" fill="#FF267E"/>
<path d="M110.143 96.949H105.037V122.608H110.143V96.949Z" fill="#FF267E"/>
<path d="M133.526 122.608L123.171 103.036V122.608H118.35V96.949H124.992L135.347 116.52V96.949H140.167V122.608H133.526Z" fill="#FF267E"/>
<path d="M152.63 109.767C152.63 111.289 152.845 112.598 153.237 113.766C153.63 114.934 154.13 115.89 154.808 116.668C155.487 117.447 156.272 118.049 157.165 118.438C158.058 118.827 159.022 119.04 160.022 119.04C161.021 119.04 161.985 118.827 162.878 118.438C163.771 118.049 164.556 117.447 165.235 116.668C165.913 115.89 166.449 114.934 166.841 113.766C167.199 112.598 167.413 111.289 167.413 109.767C167.413 108.245 167.199 106.936 166.841 105.768C166.449 104.635 165.913 103.68 165.235 102.901C164.556 102.123 163.771 101.521 162.878 101.132C161.985 100.742 161.021 100.53 160.022 100.53C159.022 100.53 158.058 100.742 157.165 101.132C156.272 101.521 155.487 102.123 154.808 102.901C154.13 103.68 153.63 104.635 153.237 105.768C152.845 106.936 152.63 108.245 152.63 109.767ZM172.697 109.767C172.697 111.749 172.412 113.554 171.805 115.182C171.198 116.845 170.376 118.226 169.27 119.393C168.127 120.597 166.806 121.482 165.27 122.119C163.699 122.756 161.95 123.074 160.022 123.074C158.093 123.074 156.344 122.756 154.808 122.119C153.237 121.482 151.916 120.597 150.809 119.393C149.667 118.226 148.845 116.845 148.238 115.182C147.631 113.554 147.346 111.749 147.346 109.767C147.346 107.785 147.631 105.98 148.238 104.317C148.845 102.689 149.667 101.309 150.809 100.141C151.916 98.9727 153.237 98.088 154.808 97.4509C156.344 96.8139 158.093 96.4954 160.022 96.4954C161.95 96.4954 163.699 96.8139 165.27 97.4509C166.806 98.088 168.127 98.9727 169.27 100.141C170.376 101.309 171.198 102.689 171.805 104.317C172.412 105.98 172.697 107.785 172.697 109.767Z" fill="#FF267E"/>
<path fill-rule="evenodd" clip-rule="evenodd" d="M193.168 77.1051C193.168 76.8165 192.934 76.5825 192.644 76.5825H0.524771C0.234112 76.5825 0 76.8165 0 77.1051V141.947C0 142.236 0.234112 142.47 0.524771 142.47H192.644C192.934 142.47 193.168 142.236 193.168 141.947V77.1051ZM192.119 77.6276V141.425H1.04954V77.6276H192.119Z" fill="#FF267E"/>
</svg>
