<svg width="39" height="26" viewBox="0 0 39 26" fill="none" xmlns="http://www.w3.org/2000/svg">
<path d="M36.4719 2.50287H2.11865V5.52284H36.4719V2.50287Z" fill="#EDEDED"/>
<path d="M18.2223 8.85572L16.4357 17.1638H14.2748L16.0617 8.85572H18.2223ZM27.3134 14.2204L28.4507 11.1006L29.105 14.2204H27.3134ZM29.7252 17.1638H31.7234L29.9778 8.85572H28.1345C27.7189 8.85572 27.3691 9.09551 27.214 9.46496L23.9715 17.1638H26.2409L26.6913 15.9232H29.4633L29.7252 17.1638ZM24.0842 14.4515C24.0938 12.2591 21.0369 12.1374 21.0574 11.1579C21.0641 10.8601 21.3493 10.5428 21.9736 10.4618C22.2831 10.4222 23.1369 10.3902 24.1047 10.8337L24.4834 9.07109C23.9634 8.88424 23.2944 8.7041 22.4621 8.7041C20.3259 8.7041 18.8232 9.83276 18.811 11.4502C18.7973 12.6464 19.8848 13.3133 20.702 13.7114C21.5447 14.1184 21.8269 14.3802 21.8232 14.7437C21.8174 15.3012 21.1508 15.548 20.5308 15.5574C19.4436 15.5742 18.8135 15.2651 18.3113 15.0322L17.9191 16.8534C18.4249 17.0837 19.3569 17.2839 20.3214 17.2943C22.5924 17.2943 24.0775 16.1789 24.0842 14.4515ZM15.1346 8.85572L11.6334 17.1638H9.34955L7.6264 10.5335C7.52199 10.1257 7.43103 9.97585 7.11354 9.80359C6.59363 9.52281 5.73591 9.2604 4.98145 9.09715L5.03258 8.85572H8.70966C9.17794 8.85572 9.59934 9.16599 9.70654 9.70246L10.6167 14.5105L12.8645 8.85572H15.1346Z" fill="#EDEDED"/>
<path d="M36.4719 20.4765H2.11865V23.4968H36.4719V20.4765Z" fill="#EDEDED"/>
<rect x="0.684751" y="1.06921" width="37.2207" height="23.8611" stroke="#EDEDED" stroke-width="0.94958"/>
</svg>
